#tb 0: 1/25
#media_type 0: video
#codec_id 0: rawvideo
#dimensions 0: 192x128
#sar 0: 0/1
0,          0,          0,        1,    36864, 0xfe2ad849
0,          1,          1,        1,    36864, 0x37954ba1
0,          2,          2,        1,    36864, 0xaf0e0877
0,          3,          3,        1,    36864, 0xf28cadd1
0,          4,          4,        1,    36864, 0xe182365a
0,          5,          5,        1,    36864, 0xdcdc03b7
0,          6,          6,        1,    36864, 0x2eded02f
0,          7,          7,        1,    36864, 0xa706ca87
0,          8,          8,        1,    36864, 0x446f4c83
0,          9,          9,        1,    36864, 0x766acab3
0,         10,         10,        1,    36864, 0x651feaed
0,         11,         11,        1,    36864, 0x834a2a75
0,         12,         12,        1,    36864, 0xb1811822
0,         13,         13,        1,    36864, 0xd8e12e21
0,         14,         14,        1,    36864, 0x6b445b13
0,         15,         15,        1,    36864, 0xa4ded223
0,         16,         16,        1,    36864, 0xbd1161b5
